<svg width="12" height="20" viewBox="0 0 12 20" fill="none" xmlns="http://www.w3.org/2000/svg">
<path d="M10.9995 0.00416134L8.40591 0C5.49214 0 3.60914 1.9319 3.60914 4.92203V7.19141H1.00144C0.776103 7.19141 0.593628 7.37409 0.593628 7.59943V10.8875C0.593628 11.1128 0.776311 11.2953 1.00144 11.2953H3.60914V19.5922C3.60914 19.8175 3.79161 20 4.01695 20H7.41926C7.64459 20 7.82707 19.8173 7.82707 19.5922V11.2953H10.8761C11.1014 11.2953 11.2839 11.1128 11.2839 10.8875L11.2851 7.59943C11.2851 7.49123 11.2421 7.38762 11.1657 7.31105C11.0893 7.23448 10.9853 7.19141 10.8771 7.19141H7.82707V5.26763C7.82707 4.34298 8.04741 3.87358 9.25191 3.87358L10.999 3.87295C11.2242 3.87295 11.4066 3.69027 11.4066 3.46514V0.411972C11.4066 0.187052 11.2244 0.00457747 10.9995 0.00416134Z" fill="white"/>
</svg>
