<svg width="21" height="21" viewBox="0 0 21 21" fill="none" xmlns="http://www.w3.org/2000/svg">
<path d="M20.9864 17.2839C20.9196 16.7792 20.6283 16.3441 20.1872 16.0902L15.0064 13.1073C14.3719 12.742 13.5669 12.8483 13.049 13.3662L12.0286 14.3866C11.757 14.6582 11.3274 14.6823 11.0295 14.4425C10.225 13.7952 9.43291 13.0828 8.67524 12.3251C7.91758 11.5674 7.20518 10.7753 6.55782 9.97083C6.31803 9.67285 6.34202 9.24328 6.61365 8.97169L7.63406 7.95124C8.15193 7.43342 8.25842 6.62854 7.893 5.99388L4.9101 0.813105C4.65611 0.371977 4.22106 0.080704 3.71643 0.0139407C3.21176 -0.0529586 2.71589 0.115356 2.35595 0.475297L0.818352 2.01294C-0.254805 3.08614 -0.27204 5.04922 0.769821 7.54064C1.77163 9.93623 3.64119 12.5734 6.03401 14.9663C8.42692 17.3591 11.0641 19.2287 13.4597 20.2305C14.6861 20.7434 15.7843 20.9996 16.7116 20.9996C17.668 20.9996 18.4425 20.7268 18.9874 20.1819L20.525 18.6443C20.8849 18.2844 21.0531 17.7885 20.9864 17.2839ZM14.667 13.6969L19.8478 16.6798C20.104 16.8273 20.2731 17.08 20.3119 17.3731C20.3444 17.619 20.2805 17.8612 20.1357 18.0564L13.2505 14.1269L13.5301 13.8473C13.8308 13.5465 14.2985 13.4847 14.667 13.6969ZM3.62717 0.688422C3.92031 0.727201 4.17298 0.896377 4.32048 1.15259L7.30337 6.33337C7.51564 6.70197 7.45377 7.1695 7.15302 7.4702L6.89617 7.72705L2.94507 0.864628C3.10658 0.745026 3.29975 0.680077 3.50113 0.680077C3.5429 0.680077 3.58504 0.682844 3.62717 0.688422ZM18.5063 19.7009C17.6537 20.5534 15.9099 20.5177 13.7222 19.6028C11.4063 18.6344 8.84687 16.8169 6.51514 14.4852C4.18341 12.1535 2.36593 9.59397 1.3975 7.27817C0.482539 5.09035 0.446845 3.34662 1.29944 2.49398L2.4409 1.35247L6.39794 8.22528L6.13257 8.49066C5.61483 9.00843 5.56975 9.8281 6.02775 10.3974C6.69035 11.2209 7.41926 12.0313 8.19411 12.8061C8.96905 13.581 9.77947 14.3099 10.6029 14.9725C11.1721 15.4305 11.9918 15.3855 12.5096 14.8677L12.7518 14.6256L19.6465 18.5606L18.5063 19.7009Z" fill="white"/>
</svg>
