<svg width="15" height="21" viewBox="0 0 15 21" fill="none" xmlns="http://www.w3.org/2000/svg">
<path d="M7.56837 4.60214C6.08839 4.60214 4.88378 5.80676 4.88378 7.28673C4.88378 8.76671 6.08839 9.97132 7.56837 9.97132C9.04834 9.97132 10.253 8.76671 10.253 7.28673C10.253 5.80676 9.04834 4.60214 7.56837 4.60214ZM7.56837 9.20429C6.51103 9.20429 5.65081 8.34407 5.65081 7.28673C5.65081 6.22939 6.51103 5.36917 7.56837 5.36917C8.62571 5.36917 9.48593 6.22939 9.48593 7.28673C9.48593 8.34407 8.62571 9.20429 7.56837 9.20429Z" fill="white"/>
<path d="M12.7012 2.15419C11.3121 0.765108 9.46509 0 7.50074 0C5.53601 0 3.68939 0.765108 2.30031 2.15419C-0.270372 4.72449 -0.589838 9.56059 1.60846 12.4906L7.50074 21L13.3842 12.5025C15.5913 9.56059 15.2719 4.72449 12.7012 2.15419ZM12.7621 12.0542L7.50074 19.6523L2.2309 12.0423C0.237015 9.38379 0.522731 5.01635 2.84298 2.69648C4.0871 1.45236 5.74119 0.767025 7.50074 0.767025C9.26029 0.767025 10.9144 1.45236 12.1589 2.69648C14.4791 5.01635 14.7648 9.38379 12.7621 12.0542Z" fill="white"/>
</svg>
